# xmcd CD database file
#
# Track frame offsets:
#	150
#	27822
#	47972
#	76290
#	97539
#	117911
#	142536
#	182627
#	200591
#	221340
#	238311
#	255535
#	275251
#	295580
#
# Disc length: 4229 seconds
#
# Revision: 0
# Processed by: cddbd v1.5.2PL0 Copyright (c) Steve Scherf et al.
# Submitted via: CDex 1.51
#
DISCID=b710830e
DTITLE=Sadi - Flahgeye Nine Thirty A.M.
DYEAR=2006
DGENRE=Jazz
TTITLE0=Flagey Nine Thirty A.M.
TTITLE1=Versad
TTITLE2=The Booze Rush
TTITLE3=The Moten Swing
TTITLE4=No Screamling
TTITLE5=Don't Blame Me
TTITLE6=Open, No Mute
TTITLE7=Am I Blue
TTITLE8=Majorette's Delight
TTITLE9=There's A Small Hotel
TTITLE10=Big Balcony
TTITLE11=My Heart Stood Still
TTITLE12=Avalance
TTITLE13=Le Spectacle Est Fini
EXTD=YEAR: 2006
EXTT0=
EXTT1=
EXTT2=
EXTT3=
EXTT4=
EXTT5=
EXTT6=
EXTT7=
EXTT8=
EXTT9=
EXTT10=
EXTT11=
EXTT12=
EXTT13=
PLAYORDER=
